<?xml version="1.0" encoding="utf-8"?>
<!-- Generator: Adobe Illustrator 21.0.0, SVG Export Plug-In . SVG Version: 6.00 Build 0)  -->
<svg version="1.1" id="Layer_1" xmlns="http://www.w3.org/2000/svg" xmlns:xlink="http://www.w3.org/1999/xlink" x="0px" y="0px"
	 viewBox="0 0 188 1125" style="enable-background:new 0 0 188 1125;" xml:space="preserve">
<style type="text/css">
	.st0{fill:#234092;}
	.st1{fill:none;stroke:#193576;stroke-width:3.5;stroke-linecap:round;stroke-linejoin:round;stroke-miterlimit:10;}
	.st2{fill:none;}
</style>
<rect class="st0" width="188" height="1125"/>
<g>
	<g>
		<g>
			<path class="st1" d="M122.8,155.1l-10.4,10.4c1,0.1,2,0.6,2.8,1.3c0.8,0.8,1.2,1.8,1.3,2.8l10.4-10.4L122.8,155.1z"/>
			
				<ellipse transform="matrix(0.7071 -0.7071 0.7071 0.7071 -87.5853 128.9249)" class="st1" cx="111.8" cy="170.2" rx="4.7" ry="4.7"/>
			<polygon class="st1" points="125,150.1 129,153.1 131.9,157 171.1,121.5 174.6,107.4 160.5,110.9 			"/>
			<polygon class="st1" points="119.7,146.2 117.4,149.8 132.2,164.6 135.8,162.3 129,153.1 			"/>
		</g>
		<g>
			<path class="st1" d="M140.9,78.8c18.2-8.7,29.3-27.5,28.3-47.6l-0.2-4c-9.6-1.8-18.9-5.4-27.2-10.6l-0.9-0.6l-0.9,0.6
				c-8.3,5.2-17.6,8.8-27.2,10.6l-0.2,4C111.6,51.3,122.7,70,140.9,78.8z"/>
			<g>
				<path class="st1" d="M126.3,37.6c0.2,10.6,5.7,20.3,14.6,25.8c8.9-5.5,14.5-15.3,14.6-25.8c-5.1-1.4-10-3.4-14.6-6
					C136.2,34.2,131.4,36.2,126.3,37.6z"/>
			</g>
		</g>
		<rect x="94" y="0" class="st2" width="93.8" height="187.5"/>
	</g>
	<g>
		<g>
			<path class="st1" d="M29,61.4L18.6,71.8c1,0.1,2,0.6,2.8,1.3c0.8,0.8,1.2,1.8,1.3,2.8l10.4-10.4L29,61.4z"/>
			
				<ellipse transform="matrix(0.7071 -0.7071 0.7071 0.7071 -48.7528 35.1748)" class="st1" cx="18.1" cy="76.4" rx="4.7" ry="4.7"/>
			<polygon class="st1" points="31.2,56.4 35.2,59.3 38.1,63.3 77.4,27.8 80.9,13.6 66.8,17.1 			"/>
			<polygon class="st1" points="25.9,52.5 23.7,56 38.5,70.9 42,68.6 35.2,59.3 			"/>
		</g>
		<g>
			<path class="st1" d="M47.1,172.6c18.2-8.7,29.3-27.5,28.3-47.6l-0.2-4c-9.6-1.8-18.9-5.4-27.2-10.6l-0.9-0.6l-0.9,0.6
				c-8.3,5.2-17.6,8.8-27.2,10.6l-0.2,4C17.8,145.1,28.9,163.8,47.1,172.6z"/>
			<g>
				<path class="st1" d="M32.4,131.4c0.2,10.6,5.7,20.3,14.6,25.8c8.9-5.5,14.5-15.3,14.6-25.8c-5.1-1.4-10-3.4-14.6-6
					C42.4,128,37.6,130,32.4,131.4z"/>
			</g>
		</g>
		<rect x="0.3" y="0" class="st2" width="93.8" height="187.5"/>
	</g>
	<g>
		<g>
			<path class="st1" d="M122.8,342.6L112.4,353c1,0.1,2,0.6,2.8,1.3c0.8,0.8,1.2,1.8,1.3,2.8l10.4-10.4L122.8,342.6z"/>
			
				<ellipse transform="matrix(0.7071 -0.7071 0.7071 0.7071 -220.1679 183.8424)" class="st1" cx="111.8" cy="357.7" rx="4.7" ry="4.7"/>
			<polygon class="st1" points="125,337.6 129,340.6 131.9,344.5 171.1,309 174.6,294.9 160.5,298.4 			"/>
			<polygon class="st1" points="119.7,333.7 117.4,337.3 132.2,352.1 135.8,349.8 129,340.6 			"/>
		</g>
		<g>
			<path class="st1" d="M140.9,266.3c18.2-8.7,29.3-27.5,28.3-47.6l-0.2-4c-9.6-1.8-18.9-5.4-27.2-10.6l-0.9-0.6L140,204
				c-8.3,5.2-17.6,8.8-27.2,10.6l-0.2,4C111.6,238.8,122.7,257.5,140.9,266.3z"/>
			<g>
				<path class="st1" d="M126.3,225.1c0.2,10.6,5.7,20.3,14.6,25.8c8.9-5.5,14.5-15.3,14.6-25.8c-5.1-1.4-10-3.4-14.6-6
					C136.2,221.7,131.4,223.7,126.3,225.1z"/>
			</g>
		</g>
		<rect x="94" y="187.5" class="st2" width="93.8" height="187.5"/>
	</g>
	<g>
		<g>
			<path class="st1" d="M29,248.9l-10.4,10.4c1,0.1,2,0.6,2.8,1.3c0.8,0.8,1.2,1.8,1.3,2.8L33.1,253L29,248.9z"/>
			
				<ellipse transform="matrix(0.7071 -0.7071 0.7071 0.7071 -181.3354 90.0924)" class="st1" cx="18.1" cy="263.9" rx="4.7" ry="4.7"/>
			<polygon class="st1" points="31.2,243.9 35.2,246.8 38.1,250.8 77.4,215.3 80.9,201.1 66.8,204.6 			"/>
			<polygon class="st1" points="25.9,240 23.7,243.5 38.5,258.4 42,256.1 35.2,246.8 			"/>
		</g>
		<g>
			<path class="st1" d="M47.1,360.1c18.2-8.7,29.3-27.5,28.3-47.6l-0.2-4c-9.6-1.8-18.9-5.4-27.2-10.6l-0.9-0.6l-0.9,0.6
				c-8.3,5.2-17.6,8.8-27.2,10.6l-0.2,4C17.8,332.6,28.9,351.3,47.1,360.1z"/>
			<g>
				<path class="st1" d="M32.4,318.9c0.2,10.6,5.7,20.3,14.6,25.8c8.9-5.5,14.5-15.3,14.6-25.8c-5.1-1.4-10-3.4-14.6-6
					C42.4,315.5,37.6,317.5,32.4,318.9z"/>
			</g>
		</g>
		<rect x="0.3" y="187.5" class="st2" width="93.8" height="187.5"/>
	</g>
	<g>
		<g>
			<path class="st1" d="M122.8,530.1l-10.4,10.4c1,0.1,2,0.6,2.8,1.3c0.8,0.8,1.2,1.8,1.3,2.8l10.4-10.4L122.8,530.1z"/>
			
				<ellipse transform="matrix(0.7071 -0.7071 0.7071 0.7071 -352.7505 238.7599)" class="st1" cx="111.8" cy="545.2" rx="4.7" ry="4.7"/>
			<polygon class="st1" points="125,525.1 129,528.1 131.9,532 171.1,496.5 174.6,482.4 160.5,485.9 			"/>
			<polygon class="st1" points="119.7,521.2 117.4,524.8 132.2,539.6 135.8,537.3 129,528.1 			"/>
		</g>
		<g>
			<path class="st1" d="M140.9,453.8c18.2-8.7,29.3-27.5,28.3-47.6l-0.2-4c-9.6-1.8-18.9-5.4-27.2-10.6l-0.9-0.6l-0.9,0.6
				c-8.3,5.2-17.6,8.8-27.2,10.6l-0.2,4C111.6,426.3,122.7,445,140.9,453.8z"/>
			<g>
				<path class="st1" d="M126.3,412.6c0.2,10.6,5.7,20.3,14.6,25.8c8.9-5.5,14.5-15.3,14.6-25.8c-5.1-1.4-10-3.4-14.6-6
					C136.2,409.2,131.4,411.2,126.3,412.6z"/>
			</g>
		</g>
		<rect x="94" y="375" class="st2" width="93.8" height="187.5"/>
	</g>
	<g>
		<g>
			<path class="st1" d="M29,436.4l-10.4,10.4c1,0.1,2,0.6,2.8,1.3c0.8,0.8,1.2,1.8,1.3,2.8l10.4-10.4L29,436.4z"/>
			
				<ellipse transform="matrix(0.7071 -0.7071 0.7071 0.7071 -313.9179 145.0099)" class="st1" cx="18.1" cy="451.4" rx="4.7" ry="4.7"/>
			<polygon class="st1" points="31.2,431.4 35.2,434.3 38.1,438.3 77.4,402.8 80.9,388.6 66.8,392.1 			"/>
			<polygon class="st1" points="25.9,427.5 23.7,431 38.5,445.9 42,443.6 35.2,434.3 			"/>
		</g>
		<g>
			<path class="st1" d="M47.1,547.6c18.2-8.7,29.3-27.5,28.3-47.6l-0.2-4c-9.6-1.8-18.9-5.4-27.2-10.6l-0.9-0.6l-0.9,0.6
				c-8.3,5.2-17.6,8.8-27.2,10.6l-0.2,4C17.8,520.1,28.9,538.8,47.1,547.6z"/>
			<g>
				<path class="st1" d="M32.4,506.4c0.2,10.6,5.7,20.3,14.6,25.8c8.9-5.5,14.5-15.3,14.6-25.8c-5.1-1.4-10-3.4-14.6-6
					C42.4,503,37.6,505,32.4,506.4z"/>
			</g>
		</g>
		<rect x="0.3" y="375" class="st2" width="93.8" height="187.5"/>
	</g>
	<g>
		<g>
			<path class="st1" d="M122.8,717.6L112.4,728c1,0.1,2,0.6,2.8,1.3c0.8,0.8,1.2,1.8,1.3,2.8l10.4-10.4L122.8,717.6z"/>
			
				<ellipse transform="matrix(0.7071 -0.7071 0.7071 0.7071 -485.333 293.6775)" class="st1" cx="111.8" cy="732.7" rx="4.7" ry="4.7"/>
			<polygon class="st1" points="125,712.6 129,715.6 131.9,719.5 171.1,684 174.6,669.9 160.5,673.4 			"/>
			<polygon class="st1" points="119.7,708.7 117.4,712.3 132.2,727.1 135.8,724.8 129,715.6 			"/>
		</g>
		<g>
			<path class="st1" d="M140.9,641.3c18.2-8.7,29.3-27.5,28.3-47.6l-0.2-4c-9.6-1.8-18.9-5.4-27.2-10.6l-0.9-0.6L140,579
				c-8.3,5.2-17.6,8.8-27.2,10.6l-0.2,4C111.6,613.8,122.7,632.5,140.9,641.3z"/>
			<g>
				<path class="st1" d="M126.3,600.1c0.2,10.6,5.7,20.3,14.6,25.8c8.9-5.5,14.5-15.3,14.6-25.8c-5.1-1.4-10-3.4-14.6-6
					C136.2,596.7,131.4,598.7,126.3,600.1z"/>
			</g>
		</g>
		<rect x="94" y="562.5" class="st2" width="93.8" height="187.5"/>
	</g>
	<g>
		<g>
			<path class="st1" d="M29,623.9l-10.4,10.4c1,0.1,2,0.6,2.8,1.3c0.8,0.8,1.2,1.8,1.3,2.8L33.1,628L29,623.9z"/>
			
				<ellipse transform="matrix(0.7071 -0.7071 0.7071 0.7071 -446.5005 199.9274)" class="st1" cx="18.1" cy="638.9" rx="4.7" ry="4.7"/>
			<polygon class="st1" points="31.2,618.9 35.2,621.8 38.1,625.8 77.4,590.3 80.9,576.1 66.8,579.6 			"/>
			<polygon class="st1" points="25.9,615 23.7,618.5 38.5,633.4 42,631.1 35.2,621.8 			"/>
		</g>
		<g>
			<path class="st1" d="M47.1,735.1c18.2-8.7,29.3-27.5,28.3-47.6l-0.2-4c-9.6-1.8-18.9-5.4-27.2-10.6l-0.9-0.6l-0.9,0.6
				c-8.3,5.2-17.6,8.8-27.2,10.6l-0.2,4C17.8,707.6,28.9,726.3,47.1,735.1z"/>
			<g>
				<path class="st1" d="M32.4,693.9c0.2,10.6,5.7,20.3,14.6,25.8c8.9-5.5,14.5-15.3,14.6-25.8c-5.1-1.4-10-3.4-14.6-6
					C42.4,690.5,37.6,692.5,32.4,693.9z"/>
			</g>
		</g>
		<rect x="0.3" y="562.5" class="st2" width="93.8" height="187.5"/>
	</g>
	<g>
		<g>
			<path class="st1" d="M122.8,905.1l-10.4,10.4c1,0.1,2,0.6,2.8,1.3c0.8,0.8,1.2,1.8,1.3,2.8l10.4-10.4L122.8,905.1z"/>
			
				<ellipse transform="matrix(0.7071 -0.7071 0.7071 0.7071 -617.9156 348.595)" class="st1" cx="111.8" cy="920.2" rx="4.7" ry="4.7"/>
			<polygon class="st1" points="125,900.1 129,903.1 131.9,907 171.1,871.5 174.6,857.4 160.5,860.9 			"/>
			<polygon class="st1" points="119.7,896.2 117.4,899.8 132.2,914.6 135.8,912.3 129,903.1 			"/>
		</g>
		<g>
			<path class="st1" d="M140.9,828.8c18.2-8.7,29.3-27.5,28.3-47.6l-0.2-4c-9.6-1.8-18.9-5.4-27.2-10.6l-0.9-0.6l-0.9,0.6
				c-8.3,5.2-17.6,8.8-27.2,10.6l-0.2,4C111.6,801.3,122.7,820,140.9,828.8z"/>
			<g>
				<path class="st1" d="M126.3,787.6c0.2,10.6,5.7,20.3,14.6,25.8c8.9-5.5,14.5-15.3,14.6-25.8c-5.1-1.4-10-3.4-14.6-6
					C136.2,784.2,131.4,786.2,126.3,787.6z"/>
			</g>
		</g>
		<rect x="94" y="750" class="st2" width="93.8" height="187.5"/>
	</g>
	<g>
		<g>
			<path class="st1" d="M29,811.4l-10.4,10.4c1,0.1,2,0.6,2.8,1.3c0.8,0.8,1.2,1.8,1.3,2.8l10.4-10.4L29,811.4z"/>
			
				<ellipse transform="matrix(0.7071 -0.7071 0.7071 0.7071 -579.0831 254.8449)" class="st1" cx="18.1" cy="826.4" rx="4.7" ry="4.7"/>
			<polygon class="st1" points="31.2,806.4 35.2,809.3 38.1,813.3 77.4,777.8 80.9,763.6 66.8,767.1 			"/>
			<polygon class="st1" points="25.9,802.5 23.7,806 38.5,820.9 42,818.6 35.2,809.3 			"/>
		</g>
		<g>
			<path class="st1" d="M47.1,922.6c18.2-8.7,29.3-27.5,28.3-47.6l-0.2-4c-9.6-1.8-18.9-5.4-27.2-10.6l-0.9-0.6l-0.9,0.6
				c-8.3,5.2-17.6,8.8-27.2,10.6l-0.2,4C17.8,895.1,28.9,913.8,47.1,922.6z"/>
			<g>
				<path class="st1" d="M32.4,881.4c0.2,10.6,5.7,20.3,14.6,25.8c8.9-5.5,14.5-15.3,14.6-25.8c-5.1-1.4-10-3.4-14.6-6
					C42.4,878,37.6,880,32.4,881.4z"/>
			</g>
		</g>
		<rect x="0.2" y="750" class="st2" width="93.8" height="187.5"/>
	</g>
	<g>
		<g>
			<path class="st1" d="M122.8,1092.6l-10.4,10.4c1,0.1,2,0.6,2.8,1.3c0.8,0.8,1.2,1.8,1.3,2.8l10.4-10.4L122.8,1092.6z"/>
			
				<ellipse transform="matrix(0.7071 -0.7071 0.7071 0.7071 -750.4982 403.5125)" class="st1" cx="111.8" cy="1107.7" rx="4.7" ry="4.7"/>
			<polygon class="st1" points="125,1087.6 129,1090.6 131.9,1094.5 171.1,1059 174.6,1044.9 160.5,1048.4 			"/>
			<polygon class="st1" points="119.7,1083.7 117.4,1087.3 132.2,1102.1 135.8,1099.8 129,1090.6 			"/>
		</g>
		<g>
			<path class="st1" d="M140.9,1016.3c18.2-8.7,29.3-27.5,28.3-47.6l-0.2-4c-9.6-1.8-18.9-5.4-27.2-10.6l-0.9-0.6L140,954
				c-8.3,5.2-17.6,8.8-27.2,10.6l-0.2,4C111.6,988.8,122.7,1007.5,140.9,1016.3z"/>
			<g>
				<path class="st1" d="M126.3,975.1c0.2,10.6,5.7,20.3,14.6,25.8c8.9-5.5,14.5-15.3,14.6-25.8c-5.1-1.4-10-3.4-14.6-6
					C136.2,971.7,131.4,973.7,126.3,975.1z"/>
			</g>
		</g>
		<rect x="94" y="937.5" class="st2" width="93.8" height="187.5"/>
	</g>
	<g>
		<g>
			<path class="st1" d="M29,998.9l-10.4,10.4c1,0.1,2,0.6,2.8,1.3c0.8,0.8,1.2,1.8,1.3,2.8l10.4-10.4L29,998.9z"/>
			
				<ellipse transform="matrix(0.7071 -0.7071 0.7071 0.7071 -711.6656 309.7625)" class="st1" cx="18.1" cy="1013.9" rx="4.7" ry="4.7"/>
			<polygon class="st1" points="31.2,993.9 35.2,996.8 38.1,1000.8 77.4,965.3 80.9,951.1 66.8,954.6 			"/>
			<polygon class="st1" points="25.9,990 23.7,993.5 38.5,1008.4 42,1006.1 35.2,996.8 			"/>
		</g>
		<g>
			<path class="st1" d="M47.1,1110.1c18.2-8.7,29.3-27.5,28.3-47.6l-0.2-4c-9.6-1.8-18.9-5.4-27.2-10.6l-0.9-0.6l-0.9,0.6
				c-8.3,5.2-17.6,8.8-27.2,10.6l-0.2,4C17.8,1082.6,28.9,1101.3,47.1,1110.1z"/>
			<g>
				<path class="st1" d="M32.4,1068.9c0.2,10.6,5.7,20.3,14.6,25.8c8.9-5.5,14.5-15.3,14.6-25.8c-5.1-1.4-10-3.4-14.6-6
					C42.4,1065.5,37.6,1067.5,32.4,1068.9z"/>
			</g>
		</g>
		<rect x="0.2" y="937.5" class="st2" width="93.8" height="187.5"/>
	</g>
</g>
</svg>
