<?xml version="1.0" encoding="utf-8"?>
<!-- Generator: Adobe Illustrator 21.0.0, SVG Export Plug-In . SVG Version: 6.00 Build 0)  -->
<svg version="1.1" id="Layer_1" xmlns="http://www.w3.org/2000/svg" xmlns:xlink="http://www.w3.org/1999/xlink" x="0px" y="0px"
	 viewBox="0 0 188 1125" style="enable-background:new 0 0 188 1125;" xml:space="preserve">
<style type="text/css">
	.st0{fill:#D82E2E;}
	.st1{fill:none;stroke:#B62626;stroke-width:3.5;stroke-linecap:round;stroke-linejoin:round;stroke-miterlimit:10;}
	.st2{fill:none;}
</style>
<rect class="st0" width="188" height="1125"/>
<g>
	<g>
		<g>
			<path class="st1" d="M65.2,155.1l10.4,10.4c-1,0.1-2,0.6-2.8,1.3c-0.8,0.8-1.2,1.8-1.3,2.8l-10.4-10.4L65.2,155.1z"/>
			
				<ellipse transform="matrix(0.7071 -0.7071 0.7071 0.7071 -98.0318 103.7046)" class="st1" cx="76.2" cy="170.2" rx="4.7" ry="4.7"/>
			<polygon class="st1" points="63,150.1 59,153.1 56.1,157 16.9,121.5 13.4,107.4 27.5,110.9 			"/>
			<polygon class="st1" points="68.3,146.2 70.6,149.8 55.8,164.6 52.2,162.3 59,153.1 			"/>
		</g>
		<g>
			<path class="st1" d="M47.1,78.8C29,70,17.8,51.3,18.8,31.2l0.2-4c9.6-1.8,18.9-5.4,27.2-10.6l0.9-0.6l0.9,0.6
				c8.3,5.2,17.6,8.8,27.2,10.6l0.2,4C76.4,51.3,65.3,70,47.1,78.8z"/>
			<g>
				<path class="st1" d="M61.8,37.6c-0.2,10.6-5.7,20.3-14.6,25.8c-8.9-5.5-14.5-15.3-14.6-25.8c5.1-1.4,10-3.4,14.6-6
					C51.8,34.2,56.6,36.2,61.8,37.6z"/>
			</g>
		</g>
		<rect x="0.3" class="st2" width="93.8" height="187.5"/>
	</g>
	<g>
		<g>
			<path class="st1" d="M159,61.4l10.4,10.4c-1,0.1-2,0.6-2.8,1.3c-0.8,0.8-1.2,1.8-1.3,2.8l-10.4-10.4L159,61.4z"/>
			
				<ellipse transform="matrix(0.7071 -0.7071 0.7071 0.7071 -4.2819 142.5371)" class="st1" cx="169.9" cy="76.4" rx="4.7" ry="4.7"/>
			<polygon class="st1" points="156.8,56.4 152.8,59.3 149.9,63.3 110.6,27.8 107.1,13.6 121.2,17.1 			"/>
			<polygon class="st1" points="162.1,52.5 164.3,56 149.5,70.9 146,68.6 152.8,59.3 			"/>
		</g>
		<g>
			<path class="st1" d="M140.9,172.6c-18.2-8.7-29.3-27.5-28.3-47.6l0.2-4c9.6-1.8,18.9-5.4,27.2-10.6l0.9-0.6l0.9,0.6
				c8.3,5.2,17.6,8.8,27.2,10.6l0.2,4C170.2,145.1,159.1,163.8,140.9,172.6z"/>
			<g>
				<path class="st1" d="M155.6,131.4c-0.2,10.6-5.7,20.3-14.6,25.8c-8.9-5.5-14.5-15.3-14.6-25.8c5.1-1.4,10-3.4,14.6-6
					C145.6,128,150.4,130,155.6,131.4z"/>
			</g>
		</g>
		<rect x="94" class="st2" width="93.8" height="187.5"/>
	</g>
	<g>
		<g>
			<path class="st1" d="M65.2,342.6L75.6,353c-1,0.1-2,0.6-2.8,1.3c-0.8,0.8-1.2,1.8-1.3,2.8l-10.4-10.4L65.2,342.6z"/>
			
				<ellipse transform="matrix(0.7071 -0.7071 0.7071 0.7071 -230.6143 158.622)" class="st1" cx="76.2" cy="357.7" rx="4.7" ry="4.7"/>
			<polygon class="st1" points="63,337.6 59,340.6 56.1,344.5 16.9,309 13.4,294.9 27.5,298.4 			"/>
			<polygon class="st1" points="68.3,333.7 70.6,337.3 55.8,352.1 52.2,349.8 59,340.6 			"/>
		</g>
		<g>
			<path class="st1" d="M47.1,266.3c-18.2-8.7-29.3-27.5-28.3-47.6l0.2-4c9.6-1.8,18.9-5.4,27.2-10.6l0.9-0.6L48,204
				c8.3,5.2,17.6,8.8,27.2,10.6l0.2,4C76.4,238.8,65.3,257.5,47.1,266.3z"/>
			<g>
				<path class="st1" d="M61.8,225.1c-0.2,10.6-5.7,20.3-14.6,25.8c-8.9-5.5-14.5-15.3-14.6-25.8c5.1-1.4,10-3.4,14.6-6
					C51.8,221.7,56.6,223.7,61.8,225.1z"/>
			</g>
		</g>
		<rect x="0.3" y="187.5" class="st2" width="93.8" height="187.5"/>
	</g>
	<g>
		<g>
			<path class="st1" d="M159,248.9l10.4,10.4c-1,0.1-2,0.6-2.8,1.3c-0.8,0.8-1.2,1.8-1.3,2.8L154.9,253L159,248.9z"/>
			
				<ellipse transform="matrix(0.7071 -0.7071 0.7071 0.7071 -136.8644 197.4545)" class="st1" cx="169.9" cy="263.9" rx="4.7" ry="4.7"/>
			<polygon class="st1" points="156.8,243.9 152.8,246.8 149.9,250.8 110.6,215.3 107.1,201.1 121.2,204.6 			"/>
			<polygon class="st1" points="162.1,240 164.3,243.5 149.5,258.4 146,256.1 152.8,246.8 			"/>
		</g>
		<g>
			<path class="st1" d="M140.9,360.1c-18.2-8.7-29.3-27.5-28.3-47.6l0.2-4c9.6-1.8,18.9-5.4,27.2-10.6l0.9-0.6l0.9,0.6
				c8.3,5.2,17.6,8.8,27.2,10.6l0.2,4C170.2,332.6,159.1,351.3,140.9,360.1z"/>
			<g>
				<path class="st1" d="M155.6,318.9c-0.2,10.6-5.7,20.3-14.6,25.8c-8.9-5.5-14.5-15.3-14.6-25.8c5.1-1.4,10-3.4,14.6-6
					C145.6,315.5,150.4,317.5,155.6,318.9z"/>
			</g>
		</g>
		<rect x="94" y="187.5" class="st2" width="93.8" height="187.5"/>
	</g>
	<g>
		<g>
			<path class="st1" d="M65.2,530.1l10.4,10.4c-1,0.1-2,0.6-2.8,1.3c-0.8,0.8-1.2,1.8-1.3,2.8l-10.4-10.4L65.2,530.1z"/>
			
				<ellipse transform="matrix(0.7071 -0.7071 0.7071 0.7071 -363.1968 213.5394)" class="st1" cx="76.2" cy="545.2" rx="4.7" ry="4.7"/>
			<polygon class="st1" points="63,525.1 59,528.1 56.1,532 16.9,496.5 13.4,482.4 27.5,485.9 			"/>
			<polygon class="st1" points="68.3,521.2 70.6,524.8 55.8,539.6 52.2,537.3 59,528.1 			"/>
		</g>
		<g>
			<path class="st1" d="M47.1,453.8C29,445,17.8,426.3,18.8,406.2l0.2-4c9.6-1.8,18.9-5.4,27.2-10.6l0.9-0.6l0.9,0.6
				c8.3,5.2,17.6,8.8,27.2,10.6l0.2,4C76.4,426.3,65.3,445,47.1,453.8z"/>
			<g>
				<path class="st1" d="M61.8,412.6c-0.2,10.6-5.7,20.3-14.6,25.8c-8.9-5.5-14.5-15.3-14.6-25.8c5.1-1.4,10-3.4,14.6-6
					C51.8,409.2,56.6,411.2,61.8,412.6z"/>
			</g>
		</g>
		<rect x="0.3" y="375" class="st2" width="93.8" height="187.5"/>
	</g>
	<g>
		<g>
			<path class="st1" d="M159,436.4l10.4,10.4c-1,0.1-2,0.6-2.8,1.3c-0.8,0.8-1.2,1.8-1.3,2.8l-10.4-10.4L159,436.4z"/>
			
				<ellipse transform="matrix(0.7071 -0.7071 0.7071 0.7071 -269.4468 252.372)" class="st1" cx="169.9" cy="451.4" rx="4.7" ry="4.7"/>
			<polygon class="st1" points="156.8,431.4 152.8,434.3 149.9,438.3 110.6,402.8 107.1,388.6 121.2,392.1 			"/>
			<polygon class="st1" points="162.1,427.5 164.3,431 149.5,445.9 146,443.6 152.8,434.3 			"/>
		</g>
		<g>
			<path class="st1" d="M140.9,547.6c-18.2-8.7-29.3-27.5-28.3-47.6l0.2-4c9.6-1.8,18.9-5.4,27.2-10.6l0.9-0.6l0.9,0.6
				c8.3,5.2,17.6,8.8,27.2,10.6l0.2,4C170.2,520.1,159.1,538.8,140.9,547.6z"/>
			<g>
				<path class="st1" d="M155.6,506.4c-0.2,10.6-5.7,20.3-14.6,25.8c-8.9-5.5-14.5-15.3-14.6-25.8c5.1-1.4,10-3.4,14.6-6
					C145.6,503,150.4,505,155.6,506.4z"/>
			</g>
		</g>
		<rect x="94" y="375" class="st2" width="93.8" height="187.5"/>
	</g>
	<g>
		<g>
			<path class="st1" d="M65.2,717.6L75.6,728c-1,0.1-2,0.6-2.8,1.3c-0.8,0.8-1.2,1.8-1.3,2.8l-10.4-10.4L65.2,717.6z"/>
			
				<ellipse transform="matrix(0.7071 -0.7071 0.7071 0.7071 -495.7793 268.4569)" class="st1" cx="76.2" cy="732.7" rx="4.7" ry="4.7"/>
			<polygon class="st1" points="63,712.6 59,715.6 56.1,719.5 16.9,684 13.4,669.9 27.5,673.4 			"/>
			<polygon class="st1" points="68.3,708.7 70.6,712.3 55.8,727.1 52.2,724.8 59,715.6 			"/>
		</g>
		<g>
			<path class="st1" d="M47.1,641.3c-18.2-8.7-29.3-27.5-28.3-47.6l0.2-4c9.6-1.8,18.9-5.4,27.2-10.6l0.9-0.6L48,579
				c8.3,5.2,17.6,8.8,27.2,10.6l0.2,4C76.4,613.8,65.3,632.5,47.1,641.3z"/>
			<g>
				<path class="st1" d="M61.8,600.1c-0.2,10.6-5.7,20.3-14.6,25.8c-8.9-5.5-14.5-15.3-14.6-25.8c5.1-1.4,10-3.4,14.6-6
					C51.8,596.7,56.6,598.7,61.8,600.1z"/>
			</g>
		</g>
		<rect x="0.3" y="562.5" class="st2" width="93.8" height="187.5"/>
	</g>
	<g>
		<g>
			<path class="st1" d="M159,623.9l10.4,10.4c-1,0.1-2,0.6-2.8,1.3c-0.8,0.8-1.2,1.8-1.3,2.8L154.9,628L159,623.9z"/>
			
				<ellipse transform="matrix(0.7071 -0.7071 0.7071 0.7071 -402.0293 307.2894)" class="st1" cx="169.9" cy="638.9" rx="4.7" ry="4.7"/>
			<polygon class="st1" points="156.8,618.9 152.8,621.8 149.9,625.8 110.6,590.3 107.1,576.1 121.2,579.6 			"/>
			<polygon class="st1" points="162.1,615 164.3,618.5 149.5,633.4 146,631.1 152.8,621.8 			"/>
		</g>
		<g>
			<path class="st1" d="M140.9,735.1c-18.2-8.7-29.3-27.5-28.3-47.6l0.2-4c9.6-1.8,18.9-5.4,27.2-10.6l0.9-0.6l0.9,0.6
				c8.3,5.2,17.6,8.8,27.2,10.6l0.2,4C170.2,707.6,159.1,726.3,140.9,735.1z"/>
			<g>
				<path class="st1" d="M155.6,693.9c-0.2,10.6-5.7,20.3-14.6,25.8c-8.9-5.5-14.5-15.3-14.6-25.8c5.1-1.4,10-3.4,14.6-6
					C145.6,690.5,150.4,692.5,155.6,693.9z"/>
			</g>
		</g>
		<rect x="94" y="562.5" class="st2" width="93.8" height="187.5"/>
	</g>
	<g>
		<g>
			<path class="st1" d="M65.2,905.1l10.4,10.4c-1,0.1-2,0.6-2.8,1.3c-0.8,0.8-1.2,1.8-1.3,2.8l-10.4-10.4L65.2,905.1z"/>
			
				<ellipse transform="matrix(0.7071 -0.7071 0.7071 0.7071 -628.3618 323.3743)" class="st1" cx="76.2" cy="920.2" rx="4.7" ry="4.7"/>
			<polygon class="st1" points="63,900.1 59,903.1 56.1,907 16.9,871.5 13.4,857.4 27.5,860.9 			"/>
			<polygon class="st1" points="68.3,896.2 70.6,899.8 55.8,914.6 52.2,912.3 59,903.1 			"/>
		</g>
		<g>
			<path class="st1" d="M47.1,828.8C29,820,17.8,801.3,18.8,781.2l0.2-4c9.6-1.8,18.9-5.4,27.2-10.6l0.9-0.6l0.9,0.6
				c8.3,5.2,17.6,8.8,27.2,10.6l0.2,4C76.4,801.3,65.3,820,47.1,828.8z"/>
			<g>
				<path class="st1" d="M61.8,787.6c-0.2,10.6-5.7,20.3-14.6,25.8c-8.9-5.5-14.5-15.3-14.6-25.8c5.1-1.4,10-3.4,14.6-6
					C51.8,784.2,56.6,786.2,61.8,787.6z"/>
			</g>
		</g>
		<rect x="0.3" y="750" class="st2" width="93.8" height="187.5"/>
	</g>
	<g>
		<g>
			<path class="st1" d="M159,811.4l10.4,10.4c-1,0.1-2,0.6-2.8,1.3c-0.8,0.8-1.2,1.8-1.3,2.8l-10.4-10.4L159,811.4z"/>
			
				<ellipse transform="matrix(0.7071 -0.7071 0.7071 0.7071 -534.6118 362.2068)" class="st1" cx="169.9" cy="826.4" rx="4.7" ry="4.7"/>
			<polygon class="st1" points="156.8,806.4 152.8,809.3 149.9,813.3 110.6,777.8 107.1,763.6 121.2,767.1 			"/>
			<polygon class="st1" points="162.1,802.5 164.3,806 149.5,820.9 146,818.6 152.8,809.3 			"/>
		</g>
		<g>
			<path class="st1" d="M140.9,922.6c-18.2-8.7-29.3-27.5-28.3-47.6l0.2-4c9.6-1.8,18.9-5.4,27.2-10.6l0.9-0.6l0.9,0.6
				c8.3,5.2,17.6,8.8,27.2,10.6l0.2,4C170.2,895.1,159.1,913.8,140.9,922.6z"/>
			<g>
				<path class="st1" d="M155.6,881.4c-0.2,10.6-5.7,20.3-14.6,25.8c-8.9-5.5-14.5-15.3-14.6-25.8c5.1-1.4,10-3.4,14.6-6
					C145.6,878,150.4,880,155.6,881.4z"/>
			</g>
		</g>
		<rect x="94" y="750" class="st2" width="93.8" height="187.5"/>
	</g>
	<g>
		<g>
			<path class="st1" d="M65.2,1092.6l10.4,10.4c-1,0.1-2,0.6-2.8,1.3c-0.8,0.8-1.2,1.8-1.3,2.8l-10.4-10.4L65.2,1092.6z"/>
			
				<ellipse transform="matrix(0.7071 -0.7071 0.7071 0.7071 -760.9442 378.2917)" class="st1" cx="76.2" cy="1107.7" rx="4.7" ry="4.7"/>
			<polygon class="st1" points="63,1087.6 59,1090.6 56.1,1094.5 16.9,1059 13.4,1044.9 27.5,1048.4 			"/>
			<polygon class="st1" points="68.3,1083.7 70.6,1087.3 55.8,1102.1 52.2,1099.8 59,1090.6 			"/>
		</g>
		<g>
			<path class="st1" d="M47.1,1016.3c-18.2-8.7-29.3-27.5-28.3-47.6l0.2-4c9.6-1.8,18.9-5.4,27.2-10.6l0.9-0.6L48,954
				c8.3,5.2,17.6,8.8,27.2,10.6l0.2,4C76.4,988.8,65.3,1007.5,47.1,1016.3z"/>
			<g>
				<path class="st1" d="M61.8,975.1c-0.2,10.6-5.7,20.3-14.6,25.8c-8.9-5.5-14.5-15.3-14.6-25.8c5.1-1.4,10-3.4,14.6-6
					C51.8,971.7,56.6,973.7,61.8,975.1z"/>
			</g>
		</g>
		<rect x="0.3" y="937.5" class="st2" width="93.8" height="187.5"/>
	</g>
	<g>
		<g>
			<path class="st1" d="M159,998.9l10.4,10.4c-1,0.1-2,0.6-2.8,1.3c-0.8,0.8-1.2,1.8-1.3,2.8l-10.4-10.4L159,998.9z"/>
			
				<ellipse transform="matrix(0.7071 -0.7071 0.7071 0.7071 -667.1943 417.1243)" class="st1" cx="169.9" cy="1013.9" rx="4.7" ry="4.7"/>
			<polygon class="st1" points="156.8,993.9 152.8,996.8 149.9,1000.8 110.6,965.3 107.1,951.1 121.2,954.6 			"/>
			<polygon class="st1" points="162.1,990 164.3,993.5 149.5,1008.4 146,1006.1 152.8,996.8 			"/>
		</g>
		<g>
			<path class="st1" d="M140.9,1110.1c-18.2-8.7-29.3-27.5-28.3-47.6l0.2-4c9.6-1.8,18.9-5.4,27.2-10.6l0.9-0.6l0.9,0.6
				c8.3,5.2,17.6,8.8,27.2,10.6l0.2,4C170.2,1082.6,159.1,1101.3,140.9,1110.1z"/>
			<g>
				<path class="st1" d="M155.6,1068.9c-0.2,10.6-5.7,20.3-14.6,25.8c-8.9-5.5-14.5-15.3-14.6-25.8c5.1-1.4,10-3.4,14.6-6
					C145.6,1065.5,150.4,1067.5,155.6,1068.9z"/>
			</g>
		</g>
		<rect x="94" y="937.5" class="st2" width="93.8" height="187.5"/>
	</g>
</g>
</svg>
