<?xml version="1.0" encoding="utf-8"?>
<!-- Generator: Adobe Illustrator 21.0.0, SVG Export Plug-In . SVG Version: 6.00 Build 0)  -->
<svg version="1.1" id="Layer_1" xmlns="http://www.w3.org/2000/svg" xmlns:xlink="http://www.w3.org/1999/xlink" x="0px" y="0px"
	 viewBox="0 0 1000 1000" style="enable-background:new 0 0 1000 1000;" xml:space="preserve">
<style type="text/css">
	.st0{fill:#FFFFFF;}
</style>
<g>
	<g>
		<path class="st0" d="M776.2,836.3c-4.7,0-9.2-1.8-12.6-5.2L657.7,725.1c-7-7-7-18.2,0-25.2l42.2-42.2c3.3-3.3,7.9-5.2,12.6-5.2
			s9.3,1.9,12.6,5.2L831,763.7c4.8,4.8,6.5,12,4.2,18.5c-2.3,6.5-8,11.1-14.8,11.8c-4.8,0.6-11.8,2.5-17.9,8.5
			c-6.1,6.1-8.1,13.2-8.6,18c-0.8,6.8-5.4,12.5-11.8,14.8C780.2,835.9,778.2,836.3,776.2,836.3z M695.5,712.5l74.1,74.1
			c2.3-3.3,4.9-6.5,7.7-9.3c2.8-2.8,5.9-5.4,9.2-7.6l-74.1-74.1L695.5,712.5z"/>
	</g>
	<g>
		<path class="st0" d="M823.7,889.5c-17.6,0-34-6.8-46.5-19.2c-25.6-25.6-25.6-67.3,0-92.9c25.6-25.6,67.3-25.6,92.9,0l0,0
			c25.6,25.6,25.6,67.3,0,92.9C857.8,882.6,841.3,889.5,823.7,889.5z M823.7,793.7c-7.7,0-15.4,2.9-21.2,8.8
			c-11.7,11.7-11.7,30.8,0,42.5c5.7,5.7,13.2,8.8,21.2,8.8c8,0,15.6-3.1,21.3-8.8c11.7-11.7,11.7-30.8,0-42.5l0,0
			C839.1,796.7,831.4,793.7,823.7,793.7z"/>
	</g>
	<g>
		<path class="st0" d="M619.5,707.5c-4.4,0-8.7-1.7-12-4.7L152,285.4c-2.6-2.4-4.4-5.5-5.3-8.9l-35.6-143.8
			c-1.9-7.8,1.6-15.9,8.5-19.8c7-3.9,15.7-2.7,21.4,2.9l520.8,520.8c6.2,6.2,7,16.1,1.8,23.2l-29.7,40.5c-3,4.1-7.6,6.7-12.6,7.2
			C620.7,707.5,620.1,707.5,619.5,707.5z M180,262.7l436.9,400.4l8.9-12.1L161.1,186.3L180,262.7z"/>
	</g>
	<g>
		<path class="st0" d="M649.3,667c-4.6,0-9.2-1.8-12.6-5.2L115.8,141c-5.7-5.7-6.9-14.4-2.9-21.4c3.9-7,12-10.5,19.8-8.5l143.8,35.7
			c3.4,0.8,6.5,2.7,8.8,5.3l417.6,455.4c3.4,3.7,5.1,8.7,4.6,13.8c-0.5,5-3.1,9.6-7.2,12.6l-40.5,29.7
			C656.6,665.9,652.9,667,649.3,667z M186.4,161.1L651,625.8l12.1-8.9L262.7,180.1L186.4,161.1z"/>
	</g>
	<g>
		<path class="st0" d="M615.9,784.7c-3.3,0-6.6-0.9-9.6-2.8l-36.3-23.1c-4.2-2.7-7-6.9-8-11.8c-0.9-4.9,0.2-9.9,3.2-13.8l69.6-94.6
			c1.1-1.5,2.4-2.7,3.8-3.8l94.6-69.6c4-2.9,9-4.1,13.8-3.2c4.9,0.9,9.1,3.8,11.8,8l23.1,36.3c4.5,7,3.5,16.3-2.4,22.2l-151,151
			C625.1,783,620.5,784.7,615.9,784.7z M605.3,739l8.1,5.2l130.8-130.8l-5.2-8.1L662,662L605.3,739z"/>
	</g>
</g>
</svg>
